<svg width="4196" height="2462" viewBox="0 0 4196 2462" fill="none" xmlns="http://www.w3.org/2000/svg">
<rect x="3065" y="675" width="296" height="50" rx="13" fill="#DE5050"/>
<rect x="3100" y="725" width="226" height="25" fill="#C23E3E"/>
<rect x="3078.5" y="750" width="269" height="316" rx="15" fill="#DE5050"/>
<rect x="3213" y="817" width="134" height="191" rx="10" fill="white"/>
<rect x="3244" y="953" width="103" height="2" rx="1" fill="url(#paint0_linear_66_409)"/>
<rect x="3244" y="953" width="103" height="2" rx="1" fill="url(#paint1_linear_66_409)"/>
<rect x="3244" y="910" width="103" height="2" rx="1" fill="url(#paint2_linear_66_409)"/>
<rect x="3244" y="867" width="103" height="2" rx="1" fill="url(#paint3_linear_66_409)"/>
<rect x="3326" y="675" width="10" height="50" fill="white"/>
<rect x="3286" y="675" width="10" height="50" fill="white"/>
<rect x="3246" y="675" width="10" height="50" fill="white"/>
<rect x="3206" y="675" width="10" height="50" fill="white"/>
<rect x="3166" y="675" width="10" height="50" fill="white"/>
<rect x="3126" y="675" width="10" height="50" fill="white"/>
<rect x="3088" y="675" width="10" height="50" fill="white"/>
<path d="M3190.19 11.6336C3466.01 68.2937 3563.7 349.877 3733.21 586.819C3905.6 822.044 4149.82 1014.35 4190.04 1218.66C4230.27 1422.98 4063.63 1642.76 3784.93 1768.1C3506.24 1893.43 3115.49 1924.34 2799.44 2011.91C2480.53 2099.47 2239.18 2241.98 1900.15 2343.28C1561.12 2444.58 1121.53 2504.68 779.628 2425.7C434.851 2348.43 184.888 2132.09 164.776 1905.45C141.791 1678.81 348.657 1441.87 308.433 1191.19C268.209 940.515 -19.1049 676.102 1.00712 446.027C21.1191 215.953 342.911 23.6524 727.911 3.04877C1112.91 -15.8379 1555.38 138.69 2003.59 131.822C2454.67 123.237 2911.5 -45.0264 3190.19 11.6336Z" fill="#D6E6FF"/>
<rect x="2631" y="1246" width="332" height="50" rx="13" fill="#DE5050"/>
<rect x="2684" y="1296" width="226" height="25" fill="#C23E3E"/>
<rect x="2649" y="1321" width="296" height="366" rx="15" fill="#DE5050"/>
<rect x="2784" y="1390" width="161" height="189" rx="10" fill="white"/>
<rect x="2840" y="1521" width="103" height="2" rx="1" fill="url(#paint4_linear_66_409)"/>
<rect x="2840" y="1480" width="103" height="2" rx="1" fill="url(#paint5_linear_66_409)"/>
<rect x="2840" y="1438" width="103" height="2" rx="1" fill="url(#paint6_linear_66_409)"/>
<rect x="2910" y="1246" width="10" height="50" fill="white"/>
<rect x="2870" y="1246" width="10" height="50" fill="white"/>
<rect x="2830" y="1246" width="10" height="50" fill="white"/>
<rect x="2790" y="1246" width="10" height="50" fill="white"/>
<rect x="2750" y="1246" width="10" height="50" fill="white"/>
<rect x="2710" y="1246" width="10" height="50" fill="white"/>
<rect x="2672" y="1246" width="10" height="50" fill="white"/>
<path d="M3103.36 1550.35C3131.73 1606.05 3177.4 1650.07 3230.32 1672.73C3283.24 1695.38 3339.08 1694.81 3385.55 1671.15C3432.02 1647.48 3465.32 1602.66 3478.13 1546.54C3490.93 1490.42 3482.19 1427.6 3453.82 1371.9L3278.59 1461.12L3103.36 1550.35Z" fill="#F0F2F8"/>
<path d="M3078.41 631.606C3055.59 586.643 3015.05 552.994 2965.68 538.061C2916.32 523.129 2862.19 528.136 2815.19 551.981C2768.2 575.826 2732.19 616.556 2715.09 665.211C2698 713.865 2701.21 766.459 2724.02 811.422L2901.21 721.514L3078.41 631.606Z" fill="#DE5050"/>
<rect x="2724.02" y="811.422" width="397.397" height="411.426" transform="rotate(-26.9032 2724.02 811.422)" fill="#DE5050"/>
<rect x="2911.79" y="1173.56" width="393.817" height="429.164" transform="rotate(-26.9032 2911.79 1173.56)" fill="#F0F2F8"/>
<ellipse cx="3084.03" cy="1220.28" rx="10.7405" ry="10.5532" transform="rotate(-26.9032 3084.03 1220.28)" fill="#E2E6F6"/>
<ellipse cx="3119.25" cy="1123.52" rx="10.7405" ry="10.5532" transform="rotate(-26.9032 3119.25 1123.52)" fill="#E2E6F6"/>
<ellipse cx="3047.23" cy="1313.91" rx="10.7405" ry="10.5532" transform="rotate(-26.9032 3047.23 1313.91)" fill="#E2E6F6"/>
<ellipse cx="3174.98" cy="1209.64" rx="10.7405" ry="10.5532" transform="rotate(-26.9032 3174.98 1209.64)" fill="#E2E6F6"/>
<ellipse cx="3242.15" cy="1073" rx="10.7405" ry="10.5532" transform="rotate(-26.9032 3242.15 1073)" fill="#E2E6F6"/>
<ellipse cx="3199" cy="1138.28" rx="10.7405" ry="10.5532" transform="rotate(-26.9032 3199 1138.28)" fill="#E2E6F6"/>
<ellipse cx="3136.59" cy="1300.12" rx="10.7405" ry="10.5532" transform="rotate(-26.9032 3136.59 1300.12)" fill="#E2E6F6"/>
<ellipse cx="3094.98" cy="1408.02" rx="10.7405" ry="10.5532" transform="rotate(-26.9032 3094.98 1408.02)" fill="#E2E6F6"/>
<ellipse cx="3267.5" cy="1225.81" rx="10.7405" ry="10.5532" transform="rotate(-26.9032 3267.5 1225.81)" fill="#E2E6F6"/>
<ellipse cx="3229.1" cy="1316.3" rx="10.7405" ry="10.5532" transform="rotate(-26.9032 3229.1 1316.3)" fill="#E2E6F6"/>
<path d="M3171.39 1043.13L3190.57 1033.44C3193.6 1039.25 3191.75 1046.13 3186.46 1048.81C3181.16 1051.48 3174.42 1048.94 3171.39 1043.13Z" fill="#E2E6F6"/>
<ellipse cx="3195.48" cy="1416.19" rx="10.7405" ry="10.5532" transform="rotate(-26.9032 3195.48 1416.19)" fill="#E2E6F6"/>
<ellipse cx="3149.1" cy="1514.67" rx="10.7405" ry="10.5532" transform="rotate(-26.9032 3149.1 1514.67)" fill="#E2E6F6"/>
<ellipse cx="3209.61" cy="1610.2" rx="10.7405" ry="10.5532" transform="rotate(-26.9032 3209.61 1610.2)" fill="#E2E6F6"/>
<ellipse cx="3238.46" cy="1500.89" rx="10.7405" ry="10.5532" transform="rotate(-26.9032 3238.46 1500.89)" fill="#E2E6F6"/>
<ellipse cx="3275.26" cy="1407.27" rx="10.7405" ry="10.5532" transform="rotate(-26.9032 3275.26 1407.27)" fill="#E2E6F6"/>
<ellipse cx="3320.02" cy="1329.33" rx="10.7405" ry="10.5532" transform="rotate(-26.9032 3320.02 1329.33)" fill="#E2E6F6"/>
<ellipse cx="3328.1" cy="1242.4" rx="10.7405" ry="10.5532" transform="rotate(-26.9032 3328.1 1242.4)" fill="#E2E6F6"/>
<ellipse cx="3343.79" cy="1471.12" rx="10.7405" ry="10.5532" transform="rotate(-26.9032 3343.79 1471.12)" fill="#E2E6F6"/>
<ellipse cx="3379.01" cy="1366.46" rx="10.7405" ry="10.5532" transform="rotate(-26.9032 3379.01 1366.46)" fill="#E2E6F6"/>
<ellipse cx="3390.26" cy="1293.69" rx="10.7405" ry="10.5532" transform="rotate(-26.9032 3390.26 1293.69)" fill="#E2E6F6"/>
<ellipse cx="3310.2" cy="1547.33" rx="10.7405" ry="10.5532" transform="rotate(-26.9032 3310.2 1547.33)" fill="#E2E6F6"/>
<ellipse cx="3442.73" cy="1444.58" rx="10.7405" ry="10.5532" transform="rotate(-26.9032 3442.73 1444.58)" fill="#E2E6F6"/>
<ellipse cx="3278.2" cy="1626.68" rx="10.7405" ry="10.5532" transform="rotate(-26.9032 3278.2 1626.68)" fill="#E2E6F6"/>
<ellipse cx="3425.11" cy="1512.69" rx="10.7405" ry="10.5532" transform="rotate(-26.9032 3425.11 1512.69)" fill="#E2E6F6"/>
<ellipse cx="3378.75" cy="1587.49" rx="10.7405" ry="10.5532" transform="rotate(-26.9032 3378.75 1587.49)" fill="#E2E6F6"/>
<ellipse cx="3353.17" cy="1632.03" rx="10.7405" ry="10.5532" transform="rotate(-26.9032 3353.17 1632.03)" fill="#E2E6F6"/>
<ellipse cx="3353.17" cy="1632.03" rx="10.7405" ry="10.5532" transform="rotate(-26.9032 3353.17 1632.03)" fill="#E2E6F6"/>
<ellipse cx="3142.9" cy="1360.04" rx="10.7405" ry="10.5532" transform="rotate(-26.9032 3142.9 1360.04)" fill="#E2E6F6"/>
<ellipse cx="3288.34" cy="1140.29" rx="10.7405" ry="10.5532" transform="rotate(-26.9032 3288.34 1140.29)" fill="#E2E6F6"/>
<ellipse cx="3028.27" cy="1157.85" rx="10.7405" ry="10.5532" transform="rotate(-26.9032 3028.27 1157.85)" fill="#E2E6F6"/>
<ellipse cx="2985.1" cy="1238.93" rx="10.7405" ry="10.5532" transform="rotate(-26.9032 2985.1 1238.93)" fill="#E2E6F6"/>
<path d="M1361.64 1304.68L2271.98 758.868C2422.7 1010.25 2341.1 1336.22 2089.71 1486.94C1838.33 1637.66 1512.36 1556.06 1361.64 1304.68Z" fill="url(#paint7_linear_66_409)"/>
<path d="M2271.98 758.868L1361.64 1304.68C1210.92 1053.3 1292.53 727.33 1543.91 576.609C1795.29 425.887 2121.26 507.487 2271.98 758.868Z" fill="#90A2F1"/>
<rect width="906.528" height="21.2352" rx="10.6176" transform="matrix(0.668778 -0.743462 0.734513 0.678595 1296.98 1170.08)" fill="#1E1E1E"/>
<rect width="1010.75" height="21.2352" rx="10.6176" transform="matrix(0.668778 -0.743462 0.734513 0.678595 1346.17 1287.32)" fill="#1E1E1E"/>
<rect width="551.002" height="20.9879" rx="10.4939" transform="matrix(0.946207 0.323563 -0.300876 0.953663 1324.25 826.175)" fill="#1E1E1E"/>
<rect width="960.826" height="21.2222" rx="10.6111" transform="matrix(0.980622 -0.195911 0.210598 0.977573 1281.96 960.045)" fill="#1E1E1E"/>
<rect width="689.422" height="20.9879" rx="10.4939" transform="matrix(0.946207 0.323563 -0.300876 0.953663 1615.54 528.712)" fill="#1E1E1E"/>
<path d="M1361.64 1304.68L2271.98 758.868C2422.7 1010.25 2341.1 1336.22 2089.71 1486.94C1838.33 1637.66 1512.36 1556.06 1361.64 1304.68Z" fill="#1A1F3A"/>
<path d="M2271.98 758.868L1361.64 1304.68C1210.92 1053.3 1292.53 727.33 1543.91 576.609C1795.29 425.887 2121.26 507.487 2271.98 758.868Z" fill="#C3D8F9"/>
<rect width="906.528" height="21.2352" rx="10.6176" transform="matrix(0.668778 -0.743462 0.734513 0.678595 1296.98 1170.08)" fill="#1A1F3A"/>
<rect width="1010.75" height="21.2352" rx="10.6176" transform="matrix(0.668778 -0.743462 0.734513 0.678595 1346.17 1287.32)" fill="#1A1F3A"/>
<rect width="551.002" height="20.9879" rx="10.4939" transform="matrix(0.946207 0.323563 -0.300876 0.953663 1324.25 826.175)" fill="#1A1F3A"/>
<rect width="960.826" height="21.2222" rx="10.6111" transform="matrix(0.980622 -0.195911 0.210598 0.977573 1281.96 960.045)" fill="#1A1F3A"/>
<rect width="689.422" height="20.9879" rx="10.4939" transform="matrix(0.946207 0.323563 -0.300876 0.953663 1615.54 528.712)" fill="#1A1F3A"/>
<rect x="1028.21" y="601.362" width="170.099" height="937.77" transform="rotate(27.9306 1028.21 601.362)" fill="url(#paint8_linear_66_409)"/>
<rect x="1028.21" y="601.362" width="170.099" height="418.81" transform="rotate(27.9306 1028.21 601.362)" fill="#90A2F1"/>
<path d="M1139.2 580.343L1178.5 681.037L1028.21 601.363L1139.2 580.343Z" fill="#90A2F1"/>
<rect x="1076.52" y="557.413" width="125.918" height="25.0375" rx="12.5188" transform="rotate(27.9306 1076.52 557.413)" fill="#1E1B4B"/>
<rect x="581.152" y="1425.76" width="187.772" height="25.0375" rx="12.5188" transform="rotate(27.9306 581.152 1425.76)" fill="#1E1B4B"/>
<path d="M1175.82 539.89C1181.12 529.883 1184.26 519.25 1184.53 510.33C1184.81 501.41 1182.2 494.935 1177.28 492.327C1172.36 489.72 1165.54 491.195 1158.31 496.428C1151.08 501.661 1144.04 510.223 1138.73 520.23L1157.28 530.06L1175.82 539.89Z" fill="#1E1B4B"/>
<rect x="1139.38" y="519.013" width="41.9725" height="63.3725" transform="rotate(27.9306 1139.38 519.013)" fill="#1E1B4B"/>
<rect x="1311.89" y="231.356" width="6.62724" height="334.593" rx="3.31362" transform="rotate(27.9306 1311.89 231.356)" fill="#1E1B4B"/>
<rect x="832.048" y="971.381" width="170.099" height="40.9705" transform="rotate(27.9306 832.048 971.381)" fill="#979EAA"/>
<rect x="865.555" y="1035.52" width="41.9725" height="477.989" transform="rotate(27.9306 865.555 1035.52)" fill="#9CA3AF"/>
<rect x="629.93" y="1479.96" width="41.9725" height="172.987" transform="rotate(27.9306 629.93 1479.96)" fill="url(#paint9_linear_66_409)"/>
<rect x="493.728" y="1590.66" width="187.772" height="25.0375" rx="12.5188" transform="rotate(27.9306 493.728 1590.66)" fill="url(#paint10_linear_66_409)"/>
<rect x="370" y="1695" width="2695" height="10" rx="5" fill="#38406F"/>
<rect x="370" y="1695" width="2695" height="10" rx="5" fill="#38406F"/>
<rect x="3126" y="1693" width="390" height="10" rx="5" fill="#38406F"/>
<path d="M2715 887.967C2715 860.353 2692.61 837.967 2665 837.967H2258.54C2230.93 837.967 2208.54 860.353 2208.54 887.967V1604.95C2208.54 1632.56 2230.93 1654.95 2258.54 1654.95H2665C2692.61 1654.95 2715 1632.56 2715 1604.95V887.967Z" fill="#C3D8F9"/>
<rect x="2448.29" y="837.967" width="14.1865" height="816.983" rx="7.09324" fill="#F0F2F8"/>
<rect x="2507.88" y="895.377" width="143.283" height="55.9376" rx="27.9688" fill="#D9D9D9"/>
<rect x="2255.36" y="895.377" width="143.283" height="55.9376" rx="27.9688" fill="#D9D9D9"/>
<rect x="2255.36" y="1042.58" width="143.283" height="55.9376" rx="27.9688" fill="#D9D9D9"/>
<rect x="2255.36" y="1191.26" width="143.283" height="55.9376" rx="27.9688" fill="#D9D9D9"/>
<rect x="2255.36" y="1338.46" width="143.283" height="55.9376" rx="27.9688" fill="#D9D9D9"/>
<rect x="2255.36" y="1487.14" width="143.283" height="55.9376" rx="27.9688" fill="#D9D9D9"/>
<rect x="2507.88" y="1042.58" width="143.283" height="55.9376" rx="27.9688" fill="#D9D9D9"/>
<rect x="2507.88" y="1191.26" width="143.283" height="55.9376" rx="27.9688" fill="#D9D9D9"/>
<rect x="2507.88" y="1339.93" width="143.283" height="55.9376" rx="27.9688" fill="#D9D9D9"/>
<rect x="2507.88" y="1487.14" width="143.283" height="55.9376" rx="27.9688" fill="#D9D9D9"/>
<rect x="2251.1" y="895.377" width="143.283" height="55.9376" rx="27.9688" fill="#F0F2F8"/>
<path d="M2249.68 923.346C2249.68 907.899 2262.21 895.377 2277.65 895.377H2303.68C2317.23 895.377 2324.78 910.484 2325.06 924.032C2325.34 937.462 2317.6 951.315 2304.17 951.315H2277.65C2262.21 951.315 2249.68 938.792 2249.68 923.346Z" fill="#DE5050"/>
<rect x="2306.43" y="895.377" width="21.2797" height="55.9376" fill="#DE5050"/>
<rect x="2306.43" y="895.377" width="21.2797" height="55.9376" fill="#DE5050"/>
<rect x="2256.78" y="1042.58" width="143.283" height="55.9376" rx="27.9688" fill="#F0F2F8"/>
<path d="M2255.36 1070.55C2255.36 1055.1 2267.88 1042.58 2283.33 1042.58H2309.35C2322.9 1042.58 2330.45 1057.69 2330.74 1071.24C2331.02 1084.67 2323.28 1098.52 2309.84 1098.52H2283.33C2267.88 1098.52 2255.36 1086 2255.36 1070.55Z" fill="#DE5050"/>
<rect x="2312.1" y="1042.58" width="21.2797" height="55.9376" fill="#DE5050"/>
<rect x="2312.1" y="1042.58" width="21.2797" height="55.9376" fill="#DE5050"/>
<rect x="2255.36" y="1191.26" width="143.283" height="55.9376" rx="27.9688" fill="#F0F2F8"/>
<path d="M2253.94 1219.23C2253.94 1203.78 2266.46 1191.26 2281.91 1191.26H2307.93C2321.49 1191.26 2329.03 1206.36 2329.32 1219.91C2329.6 1233.34 2321.86 1247.19 2308.43 1247.19H2281.91C2266.46 1247.19 2253.94 1234.67 2253.94 1219.23Z" fill="#DE5050"/>
<rect x="2310.69" y="1191.26" width="21.2797" height="55.9376" fill="#DE5050"/>
<rect x="2310.69" y="1191.26" width="21.2797" height="55.9376" fill="#DE5050"/>
<rect x="2256.78" y="1338.46" width="143.283" height="55.9376" rx="27.9688" fill="#F0F2F8"/>
<path d="M2255.36 1366.43C2255.36 1350.98 2267.88 1338.46 2283.33 1338.46H2309.35C2322.9 1338.46 2330.45 1353.57 2330.74 1367.12C2331.02 1380.55 2323.28 1394.4 2309.84 1394.4H2283.33C2267.88 1394.4 2255.36 1381.88 2255.36 1366.43Z" fill="#DE5050"/>
<rect x="2312.1" y="1338.46" width="21.2797" height="55.9376" fill="#DE5050"/>
<rect x="2312.1" y="1338.46" width="21.2797" height="55.9376" fill="#DE5050"/>
<rect x="2255.36" y="1487.14" width="143.283" height="55.9376" rx="27.9688" fill="#F0F2F8"/>
<path d="M2253.94 1515.11C2253.94 1499.66 2266.46 1487.14 2281.91 1487.14H2307.93C2321.49 1487.14 2329.03 1502.24 2329.32 1515.79C2329.6 1529.22 2321.86 1543.08 2308.43 1543.08H2281.91C2266.46 1543.08 2253.94 1530.55 2253.94 1515.11Z" fill="#DE5050"/>
<rect x="2310.69" y="1487.14" width="21.2797" height="55.9376" fill="#DE5050"/>
<rect x="2509.3" y="895.377" width="143.283" height="55.9376" rx="27.9688" fill="#F0F2F8"/>
<path d="M2507.88 923.346C2507.88 907.899 2520.4 895.377 2535.85 895.377H2561.87C2575.42 895.377 2582.97 910.484 2583.26 924.032C2583.54 937.462 2575.8 951.315 2562.36 951.315H2535.85C2520.4 951.315 2507.88 938.792 2507.88 923.346Z" fill="#DE5050"/>
<rect x="2564.62" y="895.377" width="21.2797" height="55.9376" fill="#DE5050"/>
<rect x="2507.88" y="1487.14" width="143.283" height="55.9376" rx="27.9688" fill="#F0F2F8"/>
<path d="M2506.46 1515.11C2506.46 1499.66 2518.98 1487.14 2534.43 1487.14H2560.45C2574 1487.14 2581.55 1502.24 2581.84 1515.79C2582.12 1529.22 2574.38 1543.08 2560.95 1543.08H2534.43C2518.98 1543.08 2506.46 1530.55 2506.46 1515.11Z" fill="#DE5050"/>
<rect x="2563.21" y="1487.14" width="21.2797" height="55.9376" fill="#DE5050"/>
<rect x="2507.88" y="1042.58" width="143.283" height="55.9376" rx="27.9688" fill="#F0F2F8"/>
<path d="M2506.46 1070.55C2506.46 1055.1 2518.98 1042.58 2534.43 1042.58H2560.45C2574 1042.58 2581.55 1057.69 2581.84 1071.24C2582.12 1084.67 2574.38 1098.52 2560.95 1098.52H2534.43C2518.98 1098.52 2506.46 1086 2506.46 1070.55Z" fill="#DE5050"/>
<rect x="2563.21" y="1042.58" width="21.2797" height="55.9376" fill="#DE5050"/>
<rect x="2507.88" y="1191.26" width="143.283" height="55.9376" rx="27.9688" fill="#F0F2F8"/>
<path d="M2506.46 1219.23C2506.46 1203.78 2518.98 1191.26 2534.43 1191.26H2560.45C2574 1191.26 2581.55 1206.36 2581.84 1219.91C2582.12 1233.34 2574.38 1247.19 2560.95 1247.19H2534.43C2518.98 1247.19 2506.46 1234.67 2506.46 1219.23Z" fill="#DE5050"/>
<rect x="2563.21" y="1191.26" width="21.2797" height="55.9376" fill="#DE5050"/>
<rect x="2509.3" y="1339.93" width="143.283" height="55.9376" rx="27.9688" fill="white"/>
<path d="M2507.88 1367.9C2507.88 1352.46 2520.4 1339.93 2535.85 1339.93H2561.87C2575.42 1339.93 2582.97 1355.04 2583.26 1368.59C2583.54 1382.02 2575.8 1395.87 2562.36 1395.87H2535.85C2520.4 1395.87 2507.88 1383.35 2507.88 1367.9Z" fill="#DE5050"/>
<rect x="2564.62" y="1339.93" width="21.2797" height="55.9376" fill="#DE5050"/>
<ellipse cx="2564.62" cy="1526.15" rx="5.67459" ry="6.62419" fill="#F0F2F8"/>
<ellipse cx="2530.58" cy="1504.07" rx="5.67459" ry="6.62419" fill="#F0F2F8"/>
<ellipse cx="2530.58" cy="1373.05" rx="5.67459" ry="6.62419" fill="#F0F2F8"/>
<ellipse cx="2568.88" cy="1359.81" rx="5.67459" ry="6.62419" fill="#F0F2F8"/>
<ellipse cx="2564.62" cy="1227.32" rx="5.67459" ry="6.62419" fill="#F0F2F8"/>
<ellipse cx="2530.58" cy="1212.6" rx="5.67459" ry="6.62419" fill="#F0F2F8"/>
<ellipse cx="2270.96" cy="1225.85" rx="5.67459" ry="6.62419" fill="#F0F2F8"/>
<ellipse cx="2317.78" cy="1353.92" rx="5.67459" ry="6.62419" fill="#F0F2F8"/>
<ellipse cx="2270.96" cy="1373.05" rx="5.67459" ry="6.62419" fill="#F0F2F8"/>
<ellipse cx="2276.64" cy="1504.07" rx="5.67459" ry="6.62419" fill="#F0F2F8"/>
<ellipse cx="2317.78" cy="1514.37" rx="5.67459" ry="6.62419" fill="#F0F2F8"/>
<ellipse cx="2316.36" cy="1205.24" rx="5.67459" ry="6.62419" fill="#F0F2F8"/>
<ellipse cx="2276.64" cy="1078.65" rx="5.67459" ry="6.62419" fill="#F0F2F8"/>
<ellipse cx="2317.78" cy="1058.04" rx="5.67459" ry="6.62419" fill="#F0F2F8"/>
<ellipse cx="2312.1" cy="935.858" rx="5.67459" ry="6.62419" fill="#F0F2F8"/>
<ellipse cx="2270.96" cy="916.722" rx="5.67459" ry="6.62419" fill="#F0F2F8"/>
<ellipse cx="2570.3" cy="1063.93" rx="5.67459" ry="6.62419" fill="#F0F2F8"/>
<ellipse cx="2530.58" cy="929.97" rx="5.67459" ry="6.62419" fill="#F0F2F8"/>
<ellipse cx="2567.46" cy="916.722" rx="5.67459" ry="6.62419" fill="#F0F2F8"/>
<ellipse cx="2530.58" cy="1071.29" rx="5.67459" ry="6.62419" fill="#F0F2F8"/>
<path d="M2363.18 1092.58C2363.18 1064.97 2340.79 1042.58 2313.18 1042.58H1989C1961.39 1042.58 1939 1064.97 1939 1092.58V1655C1939 1682.61 1961.39 1705 1989 1705H2313.18C2340.79 1705 2363.18 1682.61 2363.18 1655V1092.58Z" fill="url(#paint11_linear_66_409)"/>
<rect x="2139.8" y="1042.58" width="11.8817" height="662.419" rx="5.94084" fill="#F0F2F8"/>
<rect x="2189.7" y="1089.13" width="120.005" height="45.3548" rx="22.6774" fill="#F0F2F8"/>
<rect x="1978.21" y="1089.13" width="120.005" height="45.3548" rx="22.6774" fill="#F0F2F8"/>
<rect x="1978.21" y="1208.48" width="120.005" height="45.3548" rx="22.6774" fill="#F0F2F8"/>
<rect x="1978.21" y="1329.03" width="120.005" height="45.3548" rx="22.6774" fill="#F0F2F8"/>
<rect x="1978.21" y="1448.39" width="120.005" height="45.3548" rx="22.6774" fill="#F0F2F8"/>
<rect x="1978.21" y="1568.94" width="120.005" height="45.3548" rx="22.6774" fill="#F0F2F8"/>
<rect x="2189.7" y="1208.48" width="120.005" height="45.3548" rx="22.6774" fill="#F0F2F8"/>
<rect x="2189.7" y="1329.03" width="120.005" height="45.3548" rx="22.6774" fill="#F0F2F8"/>
<rect x="2189.7" y="1449.58" width="120.005" height="45.3548" rx="22.6774" fill="#F0F2F8"/>
<rect x="2189.7" y="1568.94" width="120.005" height="45.3548" rx="22.6774" fill="#F0F2F8"/>
<rect x="1076" y="876" width="468.371" height="824" fill="white"/>
<rect x="1111.5" y="1127.31" width="394.633" height="3.04621" rx="1.52311" fill="#9CA3AF"/>
<rect x="1111.5" y="1214.13" width="394.633" height="3.04621" rx="1.52311" fill="#9CA3AF"/>
<rect x="1107.41" y="1300.95" width="256.716" height="3.04621" rx="1.52311" fill="#9CA3AF"/>
<rect x="1111.5" y="1383.19" width="207.558" height="3.04621" rx="1.52311" fill="#9CA3AF"/>
<rect x="1111.5" y="1465.44" width="157.034" height="3.04621" rx="1.52311" fill="#9CA3AF"/>
<rect x="1110.14" y="1547.69" width="158.399" height="3.04621" rx="1.52311" fill="#9CA3AF"/>
<path d="M1102.48 1022.85V929.756H1142.66C1149.57 929.756 1155.62 931.013 1160.8 933.528C1165.98 936.044 1170.01 939.665 1172.89 944.392C1175.77 949.119 1177.21 954.786 1177.21 961.392C1177.21 968.059 1175.72 973.68 1172.76 978.256C1169.82 982.832 1165.68 986.286 1160.35 988.619C1155.04 990.953 1148.85 992.119 1141.76 992.119H1117.76V972.483H1136.66C1139.63 972.483 1142.16 972.119 1144.26 971.392C1146.38 970.635 1148 969.438 1149.12 967.801C1150.27 966.165 1150.85 964.028 1150.85 961.392C1150.85 958.725 1150.27 956.559 1149.12 954.892C1148 953.195 1146.38 951.953 1144.26 951.165C1142.16 950.347 1139.63 949.938 1136.66 949.938H1127.76V1022.85H1102.48ZM1157.03 980.119L1180.3 1022.85H1152.85L1130.12 980.119H1157.03ZM1209.98 953.028L1220.16 974.665L1230.89 953.028H1255.8L1237.07 987.938L1256.71 1022.85H1231.98L1220.16 1000.66L1208.71 1022.85H1183.62L1203.44 987.938L1184.89 953.028H1209.98Z" fill="url(#paint12_linear_66_409)"/>
<defs>
<linearGradient id="paint0_linear_66_409" x1="3244" y1="954" x2="3347" y2="954" gradientUnits="userSpaceOnUse">
<stop offset="0.528846" stop-color="#C3C9D4"/>
<stop offset="1" stop-color="#9098A4"/>
</linearGradient>
<linearGradient id="paint1_linear_66_409" x1="3244" y1="954" x2="3347" y2="954" gradientUnits="userSpaceOnUse">
<stop offset="0.528846" stop-color="#C3C9D4"/>
<stop offset="1" stop-color="#9098A4"/>
</linearGradient>
<linearGradient id="paint2_linear_66_409" x1="3244" y1="911" x2="3347" y2="911" gradientUnits="userSpaceOnUse">
<stop offset="0.528846" stop-color="#C3C9D4"/>
<stop offset="1" stop-color="#9098A4"/>
</linearGradient>
<linearGradient id="paint3_linear_66_409" x1="3244" y1="868" x2="3347" y2="868" gradientUnits="userSpaceOnUse">
<stop offset="0.528846" stop-color="#C3C9D4"/>
<stop offset="1" stop-color="#9098A4"/>
</linearGradient>
<linearGradient id="paint4_linear_66_409" x1="2840" y1="1522" x2="2943" y2="1522" gradientUnits="userSpaceOnUse">
<stop offset="0.528846" stop-color="#C3C9D4"/>
<stop offset="1" stop-color="#9098A4"/>
</linearGradient>
<linearGradient id="paint5_linear_66_409" x1="2840" y1="1481" x2="2943" y2="1481" gradientUnits="userSpaceOnUse">
<stop offset="0.528846" stop-color="#C3C9D4"/>
<stop offset="1" stop-color="#9098A4"/>
</linearGradient>
<linearGradient id="paint6_linear_66_409" x1="2840" y1="1439" x2="2943" y2="1439" gradientUnits="userSpaceOnUse">
<stop offset="0.528846" stop-color="#C3C9D4"/>
<stop offset="1" stop-color="#9098A4"/>
</linearGradient>
<linearGradient id="paint7_linear_66_409" x1="1816.81" y1="1031.77" x2="2089.71" y2="1486.94" gradientUnits="userSpaceOnUse">
<stop stop-color="#1A1F3A"/>
<stop offset="1" stop-color="#2D376C"/>
</linearGradient>
<linearGradient id="paint8_linear_66_409" x1="1113.26" y1="601.362" x2="1113.26" y2="1539.13" gradientUnits="userSpaceOnUse">
<stop offset="0.0480769" stop-color="#C0C8D6"/>
<stop offset="1" stop-color="#D2D0ED"/>
</linearGradient>
<linearGradient id="paint9_linear_66_409" x1="650.916" y1="1479.96" x2="650.916" y2="1652.94" gradientUnits="userSpaceOnUse">
<stop stop-color="#1E1B4B"/>
<stop offset="1" stop-color="#4740B1"/>
</linearGradient>
<linearGradient id="paint10_linear_66_409" x1="493.728" y1="1603.18" x2="681.499" y2="1603.18" gradientUnits="userSpaceOnUse">
<stop stop-color="#1E1B4B"/>
<stop offset="1" stop-color="#4740B1"/>
</linearGradient>
<linearGradient id="paint11_linear_66_409" x1="2151.09" y1="1042.58" x2="2151.09" y2="1705" gradientUnits="userSpaceOnUse">
<stop offset="0.0817308" stop-color="#312E81"/>
<stop offset="1" stop-color="#5956BA"/>
</linearGradient>
<linearGradient id="paint12_linear_66_409" x1="1202.99" y1="898.847" x2="1202.99" y2="1134.93" gradientUnits="userSpaceOnUse">
<stop stop-color="#CCD0D9"/>
<stop offset="1" stop-color="#7D828B"/>
</linearGradient>
</defs>
</svg>
