<svg width="4657" height="2617" viewBox="0 0 4657 2617" fill="none" xmlns="http://www.w3.org/2000/svg">
<rect x="3224" y="554" width="296" height="50" rx="13" fill="#DE5050"/>
<rect x="3259" y="604" width="226" height="25" fill="#C23E3E"/>
<rect x="3237.5" y="629" width="269" height="316" rx="15" fill="#DE5050"/>
<rect x="3372" y="696" width="134" height="191" rx="10" fill="white"/>
<rect x="3403" y="832" width="103" height="2" rx="1" fill="url(#paint0_linear_61_408)"/>
<rect x="3403" y="832" width="103" height="2" rx="1" fill="url(#paint1_linear_61_408)"/>
<rect x="3403" y="789" width="103" height="2" rx="1" fill="url(#paint2_linear_61_408)"/>
<rect x="3403" y="746" width="103" height="2" rx="1" fill="url(#paint3_linear_61_408)"/>
<rect x="3485" y="554" width="10" height="50" fill="white"/>
<rect x="3445" y="554" width="10" height="50" fill="white"/>
<rect x="3405" y="554" width="10" height="50" fill="white"/>
<rect x="3365" y="554" width="10" height="50" fill="white"/>
<rect x="3325" y="554" width="10" height="50" fill="white"/>
<rect x="3285" y="554" width="10" height="50" fill="white"/>
<rect x="3247" y="554" width="10" height="50" fill="white"/>
<path d="M3540.69 12.366C3846.81 72.5932 3955.23 371.904 4143.37 623.763C4334.7 873.798 4605.75 1078.21 4650.39 1295.39C4695.03 1512.57 4510.08 1746.18 4200.77 1879.41C3891.45 2012.64 3457.78 2045.49 3107.01 2138.57C2753.05 2231.65 2485.19 2383.13 2108.92 2490.81C1732.64 2598.49 1244.75 2662.36 865.283 2578.41C482.627 2496.28 205.201 2266.32 182.879 2025.41C157.369 1784.51 386.963 1532.65 342.319 1266.19C297.676 999.727 -21.2038 718.667 1.11777 474.108C23.4394 229.549 380.585 25.1415 807.884 3.24071C1235.18 -16.835 1726.26 147.421 2223.71 140.121C2724.35 130.995 3231.37 -47.8612 3540.69 12.366Z" fill="#D0E2FF"/>
<rect x="2790" y="1125" width="332" height="50" rx="13" fill="#DE5050"/>
<rect x="2843" y="1175" width="226" height="25" fill="#C23E3E"/>
<rect x="2808" y="1200" width="296" height="366" rx="15" fill="#DE5050"/>
<rect x="2943" y="1269" width="161" height="189" rx="10" fill="white"/>
<rect x="2999" y="1400" width="103" height="2" rx="1" fill="url(#paint4_linear_61_408)"/>
<rect x="2999" y="1359" width="103" height="2" rx="1" fill="url(#paint5_linear_61_408)"/>
<rect x="2999" y="1317" width="103" height="2" rx="1" fill="url(#paint6_linear_61_408)"/>
<rect x="3069" y="1125" width="10" height="50" fill="white"/>
<rect x="3029" y="1125" width="10" height="50" fill="white"/>
<rect x="2989" y="1125" width="10" height="50" fill="white"/>
<rect x="2949" y="1125" width="10" height="50" fill="white"/>
<rect x="2909" y="1125" width="10" height="50" fill="white"/>
<rect x="2869" y="1125" width="10" height="50" fill="white"/>
<rect x="2831" y="1125" width="10" height="50" fill="white"/>
<path d="M3281.3 1452.94C3302.9 1495.37 3337.06 1529.21 3376.26 1547.02C3415.45 1564.84 3456.48 1565.17 3490.31 1547.94C3524.14 1530.71 3548 1497.33 3556.65 1455.15C3565.3 1412.97 3558.02 1365.44 3536.42 1323.01L3408.86 1387.98L3281.3 1452.94Z" fill="#F0F2F8"/>
<path d="M3250.5 759.213C3233.12 724.97 3202.87 699.025 3166.39 687.085C3129.92 675.146 3090.2 678.19 3055.99 695.549C3021.78 712.908 2995.87 743.159 2983.97 779.647C2972.06 816.135 2975.14 855.872 2992.51 890.116L3121.51 824.664L3250.5 759.213Z" fill="#DE5050"/>
<rect x="2992.51" y="890.116" width="289.296" height="313.341" transform="rotate(-26.9032 2992.51 890.116)" fill="#DE5050"/>
<rect x="3135.41" y="1165.98" width="286.69" height="326.851" transform="rotate(-26.9032 3135.41 1165.98)" fill="#F0F2F8"/>
<ellipse cx="3262.62" cy="1203.57" rx="7.81882" ry="8.03731" transform="rotate(-26.9032 3262.62 1203.57)" fill="#E2E6F6"/>
<ellipse cx="3287.18" cy="1131.03" rx="7.81882" ry="8.03731" transform="rotate(-26.9032 3287.18 1131.03)" fill="#E2E6F6"/>
<ellipse cx="3236.84" cy="1273.73" rx="7.81882" ry="8.03731" transform="rotate(-26.9032 3236.84 1273.73)" fill="#E2E6F6"/>
<ellipse cx="3329.31" cy="1196.77" rx="7.81882" ry="8.03731" transform="rotate(-26.9032 3329.31 1196.77)" fill="#E2E6F6"/>
<ellipse cx="3376.81" cy="1094.56" rx="7.81882" ry="8.03731" transform="rotate(-26.9032 3376.81 1094.56)" fill="#E2E6F6"/>
<ellipse cx="3345.99" cy="1143.25" rx="7.81882" ry="8.03731" transform="rotate(-26.9032 3345.99 1143.25)" fill="#E2E6F6"/>
<ellipse cx="3302.32" cy="1264.54" rx="7.81882" ry="8.03731" transform="rotate(-26.9032 3302.32 1264.54)" fill="#E2E6F6"/>
<ellipse cx="3273.21" cy="1345.41" rx="7.81882" ry="8.03731" transform="rotate(-26.9032 3273.21 1345.41)" fill="#E2E6F6"/>
<ellipse cx="3397.51" cy="1210.23" rx="7.81882" ry="8.03731" transform="rotate(-26.9032 3397.51 1210.23)" fill="#E2E6F6"/>
<ellipse cx="3370.53" cy="1278" rx="7.81882" ry="8.03731" transform="rotate(-26.9032 3370.53 1278)" fill="#E2E6F6"/>
<path d="M3324.41 1071.06L3338.37 1064C3340.68 1068.43 3339.42 1073.6 3335.56 1075.55C3331.71 1077.5 3326.72 1075.49 3324.41 1071.06Z" fill="#E2E6F6"/>
<ellipse cx="3347.18" cy="1352.94" rx="7.81882" ry="8.03731" transform="rotate(-26.9032 3347.18 1352.94)" fill="#E2E6F6"/>
<ellipse cx="3314.43" cy="1426.64" rx="7.81882" ry="8.03731" transform="rotate(-26.9032 3314.43 1426.64)" fill="#E2E6F6"/>
<ellipse cx="3360.19" cy="1499.55" rx="7.81882" ry="8.03731" transform="rotate(-26.9032 3360.19 1499.55)" fill="#E2E6F6"/>
<ellipse cx="3379.91" cy="1417.45" rx="7.81882" ry="8.03731" transform="rotate(-26.9032 3379.91 1417.45)" fill="#E2E6F6"/>
<ellipse cx="3405.68" cy="1347.29" rx="7.81882" ry="8.03731" transform="rotate(-26.9032 3405.68 1347.29)" fill="#E2E6F6"/>
<ellipse cx="3437.52" cy="1289.08" rx="7.81882" ry="8.03731" transform="rotate(-26.9032 3437.52 1289.08)" fill="#E2E6F6"/>
<ellipse cx="3442.28" cy="1223.57" rx="7.81882" ry="8.03731" transform="rotate(-26.9032 3442.28 1223.57)" fill="#E2E6F6"/>
<ellipse cx="3456.91" cy="1396.4" rx="7.81882" ry="8.03731" transform="rotate(-26.9032 3456.91 1396.4)" fill="#E2E6F6"/>
<ellipse cx="3481.37" cy="1317.9" rx="7.81882" ry="8.03731" transform="rotate(-26.9032 3481.37 1317.9)" fill="#E2E6F6"/>
<ellipse cx="3488.65" cy="1263.13" rx="7.81882" ry="8.03731" transform="rotate(-26.9032 3488.65 1263.13)" fill="#E2E6F6"/>
<ellipse cx="3433.25" cy="1453.47" rx="7.81882" ry="8.03731" transform="rotate(-26.9032 3433.25 1453.47)" fill="#E2E6F6"/>
<ellipse cx="3529.26" cy="1377.72" rx="7.81882" ry="8.03731" transform="rotate(-26.9032 3529.26 1377.72)" fill="#E2E6F6"/>
<ellipse cx="3410.81" cy="1512.92" rx="7.81882" ry="8.03731" transform="rotate(-26.9032 3410.81 1512.92)" fill="#E2E6F6"/>
<ellipse cx="3517.23" cy="1428.89" rx="7.81882" ry="8.03731" transform="rotate(-26.9032 3517.23 1428.89)" fill="#E2E6F6"/>
<ellipse cx="3484.18" cy="1484.71" rx="7.81882" ry="8.03731" transform="rotate(-26.9032 3484.18 1484.71)" fill="#E2E6F6"/>
<ellipse cx="3465.99" cy="1517.98" rx="7.81882" ry="8.03731" transform="rotate(-26.9032 3465.99 1517.98)" fill="#E2E6F6"/>
<ellipse cx="3465.99" cy="1517.98" rx="7.81882" ry="8.03731" transform="rotate(-26.9032 3465.99 1517.98)" fill="#E2E6F6"/>
<ellipse cx="3307.77" cy="1309.84" rx="7.81882" ry="8.03731" transform="rotate(-26.9032 3307.77 1309.84)" fill="#E2E6F6"/>
<ellipse cx="3411.67" cy="1145.97" rx="7.81882" ry="8.03731" transform="rotate(-26.9032 3411.67 1145.97)" fill="#E2E6F6"/>
<ellipse cx="3220.79" cy="1155.7" rx="7.81882" ry="8.03731" transform="rotate(-26.9032 3220.79 1155.7)" fill="#E2E6F6"/>
<ellipse cx="3190.17" cy="1216.3" rx="7.81882" ry="8.03731" transform="rotate(-26.9032 3190.17 1216.3)" fill="#E2E6F6"/>
<path d="M1551.26 1235.52L2378.04 739.811C2511.66 962.673 2434.9 1254.31 2206.59 1391.19C1978.28 1528.08 1684.88 1458.38 1551.26 1235.52Z" fill="url(#paint7_linear_61_408)"/>
<path d="M2378.04 739.811L1551.26 1235.52C1417.64 1012.66 1494.4 721.026 1722.71 584.14C1951.02 447.253 2244.42 516.949 2378.04 739.811Z" fill="#90A2F1"/>
<rect x="1494.19" y="1116.04" width="821.642" height="18.8628" rx="9.43139" transform="rotate(-47.6428 1494.19 1116.04)" fill="#1E1E1E"/>
<rect x="1537.47" y="1220.18" width="916.1" height="18.8628" rx="9.43139" transform="rotate(-47.6428 1537.47 1220.18)" fill="#1E1E1E"/>
<rect x="1522.08" y="808.92" width="493.493" height="18.8628" rx="9.43139" transform="rotate(18.1956 1522.08 808.92)" fill="#1E1E1E"/>
<rect x="1482.64" y="928.773" width="870.303" height="18.8628" rx="9.43139" transform="rotate(-11.7317 1482.64 928.773)" fill="#1E1E1E"/>
<rect x="1787.81" y="540.718" width="617.466" height="18.8628" rx="9.43139" transform="rotate(18.1956 1787.81 540.718)" fill="#1E1E1E"/>
<path d="M1551.26 1235.52L2378.04 739.811C2511.66 962.673 2434.9 1254.31 2206.59 1391.19C1978.28 1528.08 1684.88 1458.38 1551.26 1235.52Z" fill="#1A1F3A"/>
<path d="M2378.04 739.811L1551.26 1235.52C1417.64 1012.66 1494.4 721.026 1722.71 584.14C1951.02 447.253 2244.42 516.949 2378.04 739.811Z" fill="#C3D8F9"/>
<rect x="1494.19" y="1116.04" width="821.642" height="18.8628" rx="9.43139" transform="rotate(-47.6428 1494.19 1116.04)" fill="#1A1F3A"/>
<rect x="1537.47" y="1220.18" width="916.1" height="18.8628" rx="9.43139" transform="rotate(-47.6428 1537.47 1220.18)" fill="#1A1F3A"/>
<rect x="1522.08" y="808.92" width="493.493" height="18.8628" rx="9.43139" transform="rotate(18.1956 1522.08 808.92)" fill="#1A1F3A"/>
<rect x="1482.64" y="928.773" width="870.303" height="18.8628" rx="9.43139" transform="rotate(-11.7317 1482.64 928.773)" fill="#1A1F3A"/>
<rect x="1787.81" y="540.718" width="617.466" height="18.8628" rx="9.43139" transform="rotate(18.1956 1787.81 540.718)" fill="#1A1F3A"/>
<rect x="1181.96" y="670.718" width="162.577" height="762.281" transform="rotate(26.3279 1181.96 670.718)" fill="url(#paint8_linear_61_408)"/>
<rect x="1181.96" y="670.718" width="162.577" height="340.436" transform="rotate(26.3279 1181.96 670.718)" fill="#90A2F1"/>
<path d="M1282.97 656.706L1327.67 742.822L1181.96 670.718L1282.97 656.706Z" fill="#90A2F1"/>
<rect x="1223.04" y="635.309" width="120.349" height="20.3522" rx="10.1761" transform="rotate(26.3279 1223.04 635.309)" fill="#1E1B4B"/>
<rect x="836.313" y="1350.18" width="179.468" height="20.3522" rx="10.1761" transform="rotate(26.3279 836.313 1350.18)" fill="#1E1B4B"/>
<path d="M1313.52 623.853C1317.6 615.601 1319.62 606.75 1319.14 599.247C1318.65 591.743 1315.7 586.202 1310.93 583.843C1306.17 581.484 1299.97 582.499 1293.71 586.666C1287.45 590.833 1281.64 597.809 1277.56 606.062L1295.54 614.958L1313.52 623.853Z" fill="#1E1B4B"/>
<rect x="1278.06" y="605.058" width="40.1165" height="51.5134" transform="rotate(26.3279 1278.06 605.058)" fill="#1E1B4B"/>
<rect x="1413.95" y="368.52" width="6.33418" height="271.979" rx="3.16709" transform="rotate(26.3279 1413.95 368.52)" fill="#1E1B4B"/>
<rect x="1030.98" y="975.839" width="162.577" height="33.3036" transform="rotate(26.3279 1030.98 975.839)" fill="#979EAA"/>
<rect x="1067.3" y="1030.97" width="40.1165" height="388.542" transform="rotate(26.3279 1067.3 1030.97)" fill="#9CA3AF"/>
<rect x="885.951" y="1397.45" width="40.1165" height="140.615" transform="rotate(26.3279 885.951 1397.45)" fill="url(#paint9_linear_61_408)"/>
<rect x="769.026" y="1486.16" width="179.468" height="20.3522" rx="10.1761" transform="rotate(26.3279 769.026 1486.16)" fill="url(#paint10_linear_61_408)"/>
<rect x="529" y="1574" width="2695" height="10" rx="5" fill="#38406F"/>
<rect x="529" y="1574" width="2695" height="10" rx="5" fill="#38406F"/>
<rect x="3285" y="1572" width="390" height="10" rx="5" fill="#38406F"/>
<path d="M2832 881.814C2832 854.2 2809.61 831.814 2782 831.814H2417.31C2389.7 831.814 2367.31 854.2 2367.31 881.814V1481.16C2367.31 1508.77 2389.7 1531.16 2417.31 1531.16H2782C2809.61 1531.16 2832 1508.77 2832 1481.16V881.814Z" fill="#C3D8F9"/>
<rect x="2587.29" y="831.814" width="13.0165" height="699.343" rx="6.50823" fill="#F0F2F8"/>
<rect x="2641.96" y="880.957" width="131.466" height="47.883" rx="23.9415" fill="#D9D9D9"/>
<rect x="2410.27" y="880.957" width="131.466" height="47.883" rx="23.9415" fill="#D9D9D9"/>
<rect x="2410.27" y="1006.96" width="131.466" height="47.883" rx="23.9415" fill="#D9D9D9"/>
<rect x="2410.27" y="1134.23" width="131.466" height="47.883" rx="23.9415" fill="#D9D9D9"/>
<rect x="2410.27" y="1260.24" width="131.466" height="47.883" rx="23.9415" fill="#D9D9D9"/>
<rect x="2410.27" y="1387.51" width="131.466" height="47.883" rx="23.9415" fill="#D9D9D9"/>
<rect x="2641.96" y="1006.96" width="131.466" height="47.883" rx="23.9415" fill="#D9D9D9"/>
<rect x="2641.96" y="1134.23" width="131.466" height="47.883" rx="23.9415" fill="#D9D9D9"/>
<rect x="2641.96" y="1261.5" width="131.466" height="47.883" rx="23.9415" fill="#D9D9D9"/>
<rect x="2641.96" y="1387.51" width="131.466" height="47.883" rx="23.9415" fill="#D9D9D9"/>
<rect x="2406.36" y="880.957" width="131.466" height="47.883" rx="23.9415" fill="#F0F2F8"/>
<path d="M2405.06 904.899C2405.06 891.676 2415.78 880.957 2429 880.957H2456.23C2467.74 880.957 2473.96 893.995 2474.22 905.496C2474.48 916.894 2468.08 928.84 2456.68 928.84H2429C2415.78 928.84 2405.06 918.121 2405.06 904.899Z" fill="#DE5050"/>
<rect x="2457.13" y="880.957" width="19.5247" height="47.883" fill="#DE5050"/>
<rect x="2457.13" y="880.957" width="19.5247" height="47.883" fill="#DE5050"/>
<rect x="2411.57" y="1006.96" width="131.466" height="47.883" rx="23.9415" fill="#F0F2F8"/>
<path d="M2410.27 1030.91C2410.27 1017.68 2420.99 1006.96 2434.21 1006.96H2461.44C2472.94 1006.96 2479.17 1020 2479.43 1031.5C2479.69 1042.9 2473.29 1054.85 2461.89 1054.85H2434.21C2420.99 1054.85 2410.27 1044.13 2410.27 1030.91Z" fill="#DE5050"/>
<rect x="2462.33" y="1006.96" width="19.5247" height="47.883" fill="#DE5050"/>
<rect x="2462.33" y="1006.96" width="19.5247" height="47.883" fill="#DE5050"/>
<rect x="2410.27" y="1134.23" width="131.466" height="47.883" rx="23.9415" fill="#F0F2F8"/>
<path d="M2408.97 1158.17C2408.97 1144.95 2419.68 1134.23 2432.91 1134.23H2460.14C2471.64 1134.23 2477.87 1147.27 2478.13 1158.77C2478.38 1170.17 2471.99 1182.12 2460.59 1182.12H2432.91C2419.68 1182.12 2408.97 1171.4 2408.97 1158.17Z" fill="#DE5050"/>
<rect x="2461.03" y="1134.23" width="19.5247" height="47.883" fill="#DE5050"/>
<rect x="2461.03" y="1134.23" width="19.5247" height="47.883" fill="#DE5050"/>
<rect x="2411.57" y="1260.24" width="131.466" height="47.883" rx="23.9415" fill="#F0F2F8"/>
<path d="M2410.27 1284.18C2410.27 1270.96 2420.99 1260.24 2434.21 1260.24H2461.44C2472.94 1260.24 2479.17 1273.28 2479.43 1284.78C2479.69 1296.18 2473.29 1308.12 2461.89 1308.12H2434.21C2420.99 1308.12 2410.27 1297.4 2410.27 1284.18Z" fill="#DE5050"/>
<rect x="2462.33" y="1260.24" width="19.5247" height="47.883" fill="#DE5050"/>
<rect x="2462.33" y="1260.24" width="19.5247" height="47.883" fill="#DE5050"/>
<rect x="2410.27" y="1387.51" width="131.466" height="47.883" rx="23.9415" fill="#F0F2F8"/>
<path d="M2408.97 1411.45C2408.97 1398.23 2419.68 1387.51 2432.91 1387.51H2460.14C2471.64 1387.51 2477.87 1400.55 2478.13 1412.05C2478.38 1423.45 2471.99 1435.39 2460.59 1435.39H2432.91C2419.68 1435.39 2408.97 1424.67 2408.97 1411.45Z" fill="#DE5050"/>
<rect x="2461.03" y="1387.51" width="19.5247" height="47.883" fill="#DE5050"/>
<rect x="2643.26" y="880.957" width="131.466" height="47.883" rx="23.9415" fill="#F0F2F8"/>
<path d="M2641.96 904.899C2641.96 891.676 2652.68 880.957 2665.9 880.957H2693.13C2704.64 880.957 2710.86 893.995 2711.12 905.496C2711.38 916.894 2704.98 928.84 2693.58 928.84H2665.9C2652.68 928.84 2641.96 918.121 2641.96 904.899Z" fill="#DE5050"/>
<rect x="2694.03" y="880.957" width="19.5247" height="47.883" fill="#DE5050"/>
<rect x="2641.96" y="1387.51" width="131.466" height="47.883" rx="23.9415" fill="#F0F2F8"/>
<path d="M2640.66 1411.45C2640.66 1398.23 2651.38 1387.51 2664.6 1387.51H2691.83C2703.34 1387.51 2709.56 1400.55 2709.82 1412.05C2710.08 1423.45 2703.68 1435.39 2692.28 1435.39H2664.6C2651.38 1435.39 2640.66 1424.67 2640.66 1411.45Z" fill="#DE5050"/>
<rect x="2692.72" y="1387.51" width="19.5247" height="47.883" fill="#DE5050"/>
<rect x="2641.96" y="1006.96" width="131.466" height="47.883" rx="23.9415" fill="#F0F2F8"/>
<path d="M2640.66 1030.91C2640.66 1017.68 2651.38 1006.96 2664.6 1006.96H2691.83C2703.34 1006.96 2709.56 1020 2709.82 1031.5C2710.08 1042.9 2703.68 1054.85 2692.28 1054.85H2664.6C2651.38 1054.85 2640.66 1044.13 2640.66 1030.91Z" fill="#DE5050"/>
<rect x="2692.72" y="1006.96" width="19.5247" height="47.883" fill="#DE5050"/>
<rect x="2641.96" y="1134.23" width="131.466" height="47.883" rx="23.9415" fill="#F0F2F8"/>
<path d="M2640.66 1158.17C2640.66 1144.95 2651.38 1134.23 2664.6 1134.23H2691.83C2703.34 1134.23 2709.56 1147.27 2709.82 1158.77C2710.08 1170.17 2703.68 1182.12 2692.28 1182.12H2664.6C2651.38 1182.12 2640.66 1171.4 2640.66 1158.17Z" fill="#DE5050"/>
<rect x="2692.72" y="1134.23" width="19.5247" height="47.883" fill="#DE5050"/>
<rect x="2643.26" y="1261.5" width="131.466" height="47.883" rx="23.9415" fill="white"/>
<path d="M2641.96 1285.44C2641.96 1272.22 2652.68 1261.5 2665.9 1261.5H2693.13C2704.64 1261.5 2710.86 1274.54 2711.12 1286.04C2711.38 1297.44 2704.98 1309.38 2693.58 1309.38H2665.9C2652.68 1309.38 2641.96 1298.66 2641.96 1285.44Z" fill="#DE5050"/>
<rect x="2694.03" y="1261.5" width="19.5247" height="47.883" fill="#DE5050"/>
<ellipse cx="2694.03" cy="1420.9" rx="5.20658" ry="5.67035" fill="#F0F2F8"/>
<ellipse cx="2662.79" cy="1402" rx="5.20658" ry="5.67035" fill="#F0F2F8"/>
<ellipse cx="2662.79" cy="1289.85" rx="5.20658" ry="5.67035" fill="#F0F2F8"/>
<ellipse cx="2697.93" cy="1278.51" rx="5.20658" ry="5.67035" fill="#F0F2F8"/>
<ellipse cx="2694.03" cy="1165.1" rx="5.20658" ry="5.67035" fill="#F0F2F8"/>
<ellipse cx="2662.79" cy="1152.5" rx="5.20658" ry="5.67035" fill="#F0F2F8"/>
<ellipse cx="2424.58" cy="1163.84" rx="5.20658" ry="5.67035" fill="#F0F2F8"/>
<ellipse cx="2467.54" cy="1273.47" rx="5.20658" ry="5.67035" fill="#F0F2F8"/>
<ellipse cx="2424.58" cy="1289.85" rx="5.20658" ry="5.67035" fill="#F0F2F8"/>
<ellipse cx="2429.79" cy="1402" rx="5.20658" ry="5.67035" fill="#F0F2F8"/>
<ellipse cx="2467.54" cy="1410.82" rx="5.20658" ry="5.67035" fill="#F0F2F8"/>
<ellipse cx="2466.24" cy="1146.2" rx="5.20658" ry="5.67035" fill="#F0F2F8"/>
<ellipse cx="2429.79" cy="1037.84" rx="5.20658" ry="5.67035" fill="#F0F2F8"/>
<ellipse cx="2467.54" cy="1020.2" rx="5.20658" ry="5.67035" fill="#F0F2F8"/>
<ellipse cx="2462.33" cy="915.609" rx="5.20658" ry="5.67035" fill="#F0F2F8"/>
<ellipse cx="2424.58" cy="899.228" rx="5.20658" ry="5.67035" fill="#F0F2F8"/>
<ellipse cx="2699.23" cy="1025.24" rx="5.20658" ry="5.67035" fill="#F0F2F8"/>
<ellipse cx="2662.79" cy="910.569" rx="5.20658" ry="5.67035" fill="#F0F2F8"/>
<ellipse cx="2696.63" cy="899.228" rx="5.20658" ry="5.67035" fill="#F0F2F8"/>
<ellipse cx="2662.79" cy="1031.54" rx="5.20658" ry="5.67035" fill="#F0F2F8"/>
<path d="M2509.19 1056.96C2509.19 1029.35 2486.81 1006.96 2459.19 1006.96H2170C2142.39 1006.96 2120 1029.35 2120 1056.96V1524C2120 1551.61 2142.39 1574 2170 1574H2459.19C2486.81 1574 2509.19 1551.61 2509.19 1524V1056.96Z" fill="url(#paint11_linear_61_408)"/>
<rect x="2304.24" y="1006.96" width="10.9017" height="567.035" rx="5.45087" fill="#F0F2F8"/>
<rect x="2350.03" y="1046.81" width="110.108" height="38.824" rx="19.412" fill="#F0F2F8"/>
<rect x="2155.98" y="1046.81" width="110.108" height="38.824" rx="19.412" fill="#F0F2F8"/>
<rect x="2155.98" y="1148.98" width="110.108" height="38.824" rx="19.412" fill="#F0F2F8"/>
<rect x="2155.98" y="1252.17" width="110.108" height="38.824" rx="19.412" fill="#F0F2F8"/>
<rect x="2155.98" y="1354.34" width="110.108" height="38.824" rx="19.412" fill="#F0F2F8"/>
<rect x="2155.98" y="1457.53" width="110.108" height="38.824" rx="19.412" fill="#F0F2F8"/>
<rect x="2350.03" y="1148.98" width="110.108" height="38.824" rx="19.412" fill="#F0F2F8"/>
<rect x="2350.03" y="1252.17" width="110.108" height="38.824" rx="19.412" fill="#F0F2F8"/>
<rect x="2350.03" y="1355.36" width="110.108" height="38.824" rx="19.412" fill="#F0F2F8"/>
<rect x="2350.03" y="1457.53" width="110.108" height="38.824" rx="19.412" fill="#F0F2F8"/>
<rect x="1235" y="866" width="432" height="713" fill="white"/>
<rect x="1267.75" y="1083.46" width="363.988" height="2.63586" rx="1.31793" fill="#9CA3AF"/>
<rect x="1267.75" y="1158.58" width="363.988" height="2.63586" rx="1.31793" fill="#9CA3AF"/>
<rect x="1263.97" y="1233.7" width="236.781" height="2.63586" rx="1.31793" fill="#9CA3AF"/>
<rect x="1267.75" y="1304.87" width="191.44" height="2.63586" rx="1.31793" fill="#9CA3AF"/>
<rect x="1267.75" y="1376.04" width="144.84" height="2.63586" rx="1.31793" fill="#9CA3AF"/>
<rect x="1266.49" y="1447.21" width="146.099" height="2.63586" rx="1.31793" fill="#9CA3AF"/>
<path d="M1263.07 1009.77V916.678H1297.98C1305.13 916.678 1311.13 917.921 1315.98 920.405C1320.86 922.89 1324.54 926.375 1327.03 930.86C1329.54 935.314 1330.8 940.511 1330.8 946.451C1330.8 952.421 1329.53 957.602 1326.98 961.996C1324.47 966.36 1320.76 969.739 1315.85 972.133C1310.94 974.496 1304.91 975.678 1297.76 975.678H1272.89V961.678H1295.48C1299.66 961.678 1303.09 961.102 1305.76 959.951C1308.42 958.769 1310.39 957.057 1311.66 954.814C1312.97 952.542 1313.62 949.754 1313.62 946.451C1313.62 943.148 1312.97 940.33 1311.66 937.996C1310.36 935.633 1308.38 933.845 1305.71 932.633C1303.04 931.39 1299.6 930.769 1295.39 930.769H1279.94V1009.77H1263.07ZM1311.16 967.587L1334.21 1009.77H1315.39L1292.76 967.587H1311.16ZM1359.05 939.951L1373.14 965.724L1387.46 939.951H1404.87L1383.82 974.86L1405.23 1009.77H1387.91L1373.14 984.633L1358.51 1009.77H1341.05L1362.32 974.86L1341.6 939.951H1359.05Z" fill="url(#paint12_linear_61_408)"/>
<defs>
<linearGradient id="paint0_linear_61_408" x1="3403" y1="833" x2="3506" y2="833" gradientUnits="userSpaceOnUse">
<stop offset="0.528846" stop-color="#C3C9D4"/>
<stop offset="1" stop-color="#9098A4"/>
</linearGradient>
<linearGradient id="paint1_linear_61_408" x1="3403" y1="833" x2="3506" y2="833" gradientUnits="userSpaceOnUse">
<stop offset="0.528846" stop-color="#C3C9D4"/>
<stop offset="1" stop-color="#9098A4"/>
</linearGradient>
<linearGradient id="paint2_linear_61_408" x1="3403" y1="790" x2="3506" y2="790" gradientUnits="userSpaceOnUse">
<stop offset="0.528846" stop-color="#C3C9D4"/>
<stop offset="1" stop-color="#9098A4"/>
</linearGradient>
<linearGradient id="paint3_linear_61_408" x1="3403" y1="747" x2="3506" y2="747" gradientUnits="userSpaceOnUse">
<stop offset="0.528846" stop-color="#C3C9D4"/>
<stop offset="1" stop-color="#9098A4"/>
</linearGradient>
<linearGradient id="paint4_linear_61_408" x1="2999" y1="1401" x2="3102" y2="1401" gradientUnits="userSpaceOnUse">
<stop offset="0.528846" stop-color="#C3C9D4"/>
<stop offset="1" stop-color="#9098A4"/>
</linearGradient>
<linearGradient id="paint5_linear_61_408" x1="2999" y1="1360" x2="3102" y2="1360" gradientUnits="userSpaceOnUse">
<stop offset="0.528846" stop-color="#C3C9D4"/>
<stop offset="1" stop-color="#9098A4"/>
</linearGradient>
<linearGradient id="paint6_linear_61_408" x1="2999" y1="1318" x2="3102" y2="1318" gradientUnits="userSpaceOnUse">
<stop offset="0.528846" stop-color="#C3C9D4"/>
<stop offset="1" stop-color="#9098A4"/>
</linearGradient>
<linearGradient id="paint7_linear_61_408" x1="1964.65" y1="987.667" x2="2206.59" y2="1391.19" gradientUnits="userSpaceOnUse">
<stop stop-color="#1A1F3A"/>
<stop offset="1" stop-color="#2D376C"/>
</linearGradient>
<linearGradient id="paint8_linear_61_408" x1="1263.25" y1="670.718" x2="1263.25" y2="1433" gradientUnits="userSpaceOnUse">
<stop offset="0.0480769" stop-color="#C0C8D6"/>
<stop offset="1" stop-color="#D2D0ED"/>
</linearGradient>
<linearGradient id="paint9_linear_61_408" x1="906.009" y1="1397.45" x2="906.009" y2="1538.07" gradientUnits="userSpaceOnUse">
<stop stop-color="#1E1B4B"/>
<stop offset="1" stop-color="#4740B1"/>
</linearGradient>
<linearGradient id="paint10_linear_61_408" x1="769.026" y1="1496.34" x2="948.494" y2="1496.34" gradientUnits="userSpaceOnUse">
<stop stop-color="#1E1B4B"/>
<stop offset="1" stop-color="#4740B1"/>
</linearGradient>
<linearGradient id="paint11_linear_61_408" x1="2314.6" y1="1006.96" x2="2314.6" y2="1574" gradientUnits="userSpaceOnUse">
<stop offset="0.0817308" stop-color="#312E81"/>
<stop offset="1" stop-color="#5956BA"/>
</linearGradient>
<linearGradient id="paint12_linear_61_408" x1="1352.13" y1="885.769" x2="1352.13" y2="1090.05" gradientUnits="userSpaceOnUse">
<stop stop-color="#CCD0D9"/>
<stop offset="1" stop-color="#7D828B"/>
</linearGradient>
</defs>
</svg>
