<svg width="357" height="735" viewBox="0 0 357 735" fill="none" xmlns="http://www.w3.org/2000/svg">
<path d="M357 230C357 202.386 334.614 180 307 180H50C22.3858 180 0 202.386 0 230V685C0 712.614 22.3858 735 50 735H307C334.614 735 357 712.614 357 685V230Z" fill="#D0E2FF"/>
<rect x="169" y="180" width="10" height="555" rx="5" fill="#F0F2F8"/>
<rect x="211" y="219" width="101" height="38" rx="19" fill="#D9D9D9"/>
<rect x="33" y="219" width="101" height="38" rx="19" fill="#D9D9D9"/>
<rect x="33" y="319" width="101" height="38" rx="19" fill="#D9D9D9"/>
<rect x="33" y="420" width="101" height="38" rx="19" fill="#D9D9D9"/>
<rect x="33" y="520" width="101" height="38" rx="19" fill="#D9D9D9"/>
<rect x="33" y="621" width="101" height="38" rx="19" fill="#D9D9D9"/>
<rect x="211" y="319" width="101" height="38" rx="19" fill="#D9D9D9"/>
<rect x="211" y="420" width="101" height="38" rx="19" fill="#D9D9D9"/>
<rect x="211" y="521" width="101" height="38" rx="19" fill="#D9D9D9"/>
<rect x="211" y="621" width="101" height="38" rx="19" fill="#D9D9D9"/>
<rect x="30" y="219" width="101" height="38" rx="19" fill="#F0F2F8"/>
<path d="M29 238C29 227.507 37.5066 219 48 219H67.7399C76.9054 219 81.9336 229.307 82.1333 238.47C82.3312 247.553 77.1697 257 68.0852 257H48C37.5066 257 29 248.493 29 238Z" fill="#DE5050"/>
<rect x="69" y="219" width="15" height="38" fill="#DE5050"/>
<rect x="69" y="219" width="15" height="38" fill="#DE5050"/>
<rect x="34" y="319" width="101" height="38" rx="19" fill="#F0F2F8"/>
<path d="M33 338C33 327.507 41.5066 319 52 319H71.7399C80.9054 319 85.9336 329.307 86.1333 338.47C86.3312 347.553 81.1697 357 72.0852 357H52C41.5066 357 33 348.493 33 338Z" fill="#DE5050"/>
<rect x="73" y="319" width="15" height="38" fill="#DE5050"/>
<rect x="73" y="319" width="15" height="38" fill="#DE5050"/>
<rect x="33" y="420" width="101" height="38" rx="19" fill="#F0F2F8"/>
<path d="M32 439C32 428.507 40.5066 420 51 420H70.7399C79.9054 420 84.9336 430.307 85.1333 439.47C85.3312 448.553 80.1697 458 71.0852 458H51C40.5066 458 32 449.493 32 439Z" fill="#DE5050"/>
<rect x="72" y="420" width="15" height="38" fill="#DE5050"/>
<rect x="72" y="420" width="15" height="38" fill="#DE5050"/>
<rect x="34" y="520" width="101" height="38" rx="19" fill="#F0F2F8"/>
<path d="M33 539C33 528.507 41.5066 520 52 520H71.7399C80.9054 520 85.9336 530.307 86.1333 539.47C86.3312 548.553 81.1697 558 72.0852 558H52C41.5066 558 33 549.493 33 539Z" fill="#DE5050"/>
<rect x="73" y="520" width="15" height="38" fill="#DE5050"/>
<rect x="73" y="520" width="15" height="38" fill="#DE5050"/>
<rect x="33" y="621" width="101" height="38" rx="19" fill="#F0F2F8"/>
<path d="M32 640C32 629.507 40.5066 621 51 621H70.7399C79.9054 621 84.9336 631.307 85.1333 640.47C85.3312 649.553 80.1697 659 71.0852 659H51C40.5066 659 32 650.493 32 640Z" fill="#DE5050"/>
<rect x="72" y="621" width="15" height="38" fill="#DE5050"/>
<rect x="212" y="219" width="101" height="38" rx="19" fill="#F0F2F8"/>
<path d="M211 238C211 227.507 219.507 219 230 219H249.74C258.905 219 263.934 229.307 264.133 238.47C264.331 247.553 259.17 257 250.085 257H230C219.507 257 211 248.493 211 238Z" fill="#DE5050"/>
<rect x="251" y="219" width="15" height="38" fill="#DE5050"/>
<rect x="211" y="621" width="101" height="38" rx="19" fill="#F0F2F8"/>
<path d="M210 640C210 629.507 218.507 621 229 621H248.74C257.905 621 262.934 631.307 263.133 640.47C263.331 649.553 258.17 659 249.085 659H229C218.507 659 210 650.493 210 640Z" fill="#DE5050"/>
<rect x="250" y="621" width="15" height="38" fill="#DE5050"/>
<rect x="211" y="319" width="101" height="38" rx="19" fill="#F0F2F8"/>
<path d="M210 338C210 327.507 218.507 319 229 319H248.74C257.905 319 262.934 329.307 263.133 338.47C263.331 347.553 258.17 357 249.085 357H229C218.507 357 210 348.493 210 338Z" fill="#DE5050"/>
<rect x="250" y="319" width="15" height="38" fill="#DE5050"/>
<rect x="211" y="420" width="101" height="38" rx="19" fill="#F0F2F8"/>
<path d="M210 439C210 428.507 218.507 420 229 420H248.74C257.905 420 262.934 430.307 263.133 439.47C263.331 448.553 258.17 458 249.085 458H229C218.507 458 210 449.493 210 439Z" fill="#DE5050"/>
<rect x="250" y="420" width="15" height="38" fill="#DE5050"/>
<rect x="212" y="521" width="101" height="38" rx="19" fill="white"/>
<path d="M211 540C211 529.507 219.507 521 230 521H249.74C258.905 521 263.934 531.307 264.133 540.47C264.331 549.553 259.17 559 250.085 559H230C219.507 559 211 550.493 211 540Z" fill="#DE5050"/>
<rect x="251" y="521" width="15" height="38" fill="#DE5050"/>
</svg>
