<svg width="156" height="47" viewBox="0 0 156 47" fill="none" xmlns="http://www.w3.org/2000/svg">
<path d="M2.624 32V9.792H4.736L14.144 25.248H12.704L22.112 9.792H24.224V32H21.216V15.072L21.92 15.264L14.496 27.456H12.384L4.96 15.264L5.632 15.072V32H2.624ZM29.4678 32V9.792H32.4758V32H29.4678ZM31.5158 32V29.248H44.2518V32H31.5158ZM31.5158 21.952V19.328H43.1958V21.952H31.5158ZM31.5158 12.544V9.792H44.0918V12.544H31.5158ZM50.3268 32V29.248H56.5028C58.1454 29.248 59.5854 28.896 60.8228 28.192C62.0601 27.4667 63.0201 26.4747 63.7028 25.216C64.4068 23.9573 64.7588 22.5067 64.7588 20.864C64.7588 19.2427 64.4068 17.8027 63.7028 16.544C62.9988 15.2853 62.0281 14.304 60.7908 13.6C59.5534 12.896 58.1241 12.544 56.5028 12.544H50.3588V9.792H56.5668C58.1881 9.792 59.6814 10.0693 61.0468 10.624C62.4334 11.1787 63.6281 11.9573 64.6308 12.96C65.6548 13.9627 66.4441 15.136 66.9988 16.48C67.5748 17.824 67.8628 19.296 67.8628 20.896C67.8628 22.4747 67.5748 23.9467 66.9988 25.312C66.4441 26.656 65.6654 27.8293 64.6628 28.832C63.6601 29.8347 62.4654 30.6133 61.0788 31.168C59.7134 31.7227 58.2308 32 56.6308 32H50.3268ZM48.3428 32V9.792H51.3508V32H48.3428ZM72.0303 32V9.792H75.0383V32H72.0303ZM111.023 32L120.111 9.792H122.287L131.343 32H128.079L120.623 13.216H121.743L114.223 32H111.023ZM115.343 26.976V24.352H127.023V26.976H115.343Z" fill="black"/>
<rect width="10.451" height="17.6936" rx="5.22548" transform="matrix(0.772135 0.635459 -0.635454 0.772138 90.9128 16.1018)" fill="#3969BC"/>
<path d="M96.7381 23.0786C97.0044 24.5457 96.2416 25.4541 94.1223 25.452C91.7382 25.4498 88.6898 23.3133 88.2902 20.9126C87.8911 19.0452 89.8498 18.7743 91.4846 18.1016C93.4444 18.3595 96.3264 20.8112 96.7381 23.0786Z" fill="#2B4D88"/>
<path d="M90.6898 16.7639C90.6263 16.3816 90.7588 16.0023 91.0112 15.7084L97.6796 7.94278C99.5416 5.77441 102.818 5.54895 104.959 7.4418C107.079 9.31566 107.279 12.5533 105.405 14.6734L99.3648 21.5071C98.618 22.3519 97.5047 22.8537 96.3994 22.6308C95.3272 22.4145 94.4637 21.9879 92.9686 20.8664C91.3649 19.6635 90.8511 17.734 90.6898 16.7639Z" fill="#80CFF0"/>
<rect width="10.451" height="17.6936" rx="5.22548" transform="matrix(0.772135 0.635459 -0.635454 0.772138 90.9128 16.1018)" fill="#3969BC"/>
<path d="M96.7381 23.0786C97.0044 24.5457 96.2416 25.4541 94.1223 25.452C91.7382 25.4498 88.6898 23.3133 88.2902 20.9126C87.8911 19.0452 89.8498 18.7743 91.4846 18.1016C93.4444 18.3595 96.3264 20.8112 96.7381 23.0786Z" fill="#2B4D88"/>
<path d="M90.6898 16.7639C90.6263 16.3816 90.7588 16.0023 91.0112 15.7084L97.6796 7.94278C99.5416 5.77441 102.818 5.54895 104.959 7.4418C107.079 9.31566 107.279 12.5533 105.405 14.6734L99.3648 21.5071C98.618 22.3519 97.5047 22.8537 96.3994 22.6308C95.3272 22.4145 94.4637 21.9879 92.9686 20.8664C91.3649 19.6635 90.8511 17.734 90.6898 16.7639Z" fill="#80CFF0"/>
<path d="M80.7552 7.05842C82.3436 5.58506 86.3918 7.17549 91.0305 10.7511C88.2729 9.06863 85.9651 8.51366 84.8879 9.51299C82.9525 11.3089 85.7228 17.4416 91.0756 23.21C96.4283 28.9781 102.337 32.1982 104.272 30.4028C105.237 29.5074 105.033 27.5344 103.921 25.066C106.52 29.3767 107.45 32.9318 106.006 34.2714C103.694 36.4167 96.1665 32.0647 89.1935 24.5503C82.2204 17.0357 78.4427 9.20426 80.7552 7.05842Z" fill="#7B8FB2"/>
<rect x="98.4713" y="25.8434" width="2.76499" height="2.765" rx="1.38249" fill="#80CFF0"/>
<rect x="83.6462" y="10.9126" width="3.31798" height="3.318" rx="1.65899" fill="#80CFF0"/>
<rect x="82.7108" y="20.3134" width="1.38249" height="1.3825" rx="0.691247" fill="#80CFF0"/>
<rect x="101.236" y="21.1428" width="1.93549" height="1.9355" rx="0.967745" fill="#80CFF0"/>
<rect x="104.554" y="23.9081" width="1.10599" height="1.106" rx="0.552997" fill="#80CFF0"/>
</svg>
