<?xml version="1.0" encoding="iso-8859-1"?>
<!-- Uploaded to: SVG Repo, www.svgrepo.com, Generator: SVG Repo Mixer Tools -->
<svg height="800px" width="800px" version="1.1" id="Layer_1" xmlns="http://www.w3.org/2000/svg" xmlns:xlink="http://www.w3.org/1999/xlink" 
	 viewBox="0 0 512 512" xml:space="preserve">
<path style="fill:#C9E3F7;" d="M448,448c0,35.2-28.8,64-64,64H128c-35.2,0-64-28.8-64-64V64c0-35.2,28.8-64,64-64h256
	c35.2,0,64,28.8,64,64V448z"/>
<path style="fill:#AED5F3;" d="M384,0H256v512h128c35.2,0,64-28.8,64-64V64C448,28.8,419.2,0,384,0z"/>
<path style="fill:#FFFFFF;" d="M240,88c0,17.674-14.326,32-32,32h-64c-17.674,0-32-14.326-32-32l0,0c0-17.674,14.326-32,32-32h64
	C225.674,56,240,70.326,240,88L240,88z"/>
<path style="fill:#D80027;" d="M176,56h-32c-17.674,0-32,14.326-32,32s14.326,32,32,32h32V56z"/>
<path style="fill:#FFFFFF;" d="M400,88c0,17.674-14.326,32-32,32h-64c-17.674,0-32-14.326-32-32l0,0c0-17.674,14.326-32,32-32h64
	C385.674,56,400,70.326,400,88L400,88z"/>
<path style="fill:#D80027;" d="M336,56h-32c-17.674,0-32,14.326-32,32s14.326,32,32,32h32V56z"/>
<path style="fill:#FFFFFF;" d="M240,200c0,17.674-14.326,32-32,32h-64c-17.674,0-32-14.326-32-32l0,0c0-17.674,14.326-32,32-32h64
	C225.674,168,240,182.326,240,200L240,200z"/>
<path style="fill:#D80027;" d="M176,168h-32c-17.674,0-32,14.326-32,32s14.326,32,32,32h32V168z"/>
<path style="fill:#FFFFFF;" d="M400,200c0,17.674-14.326,32-32,32h-64c-17.674,0-32-14.326-32-32l0,0c0-17.674,14.326-32,32-32h64
	C385.674,168,400,182.326,400,200L400,200z"/>
<path style="fill:#D80027;" d="M336,168h-32c-17.674,0-32,14.326-32,32s14.326,32,32,32h32V168z"/>
<path style="fill:#FFFFFF;" d="M240,312c0,17.674-14.326,32-32,32h-64c-17.674,0-32-14.326-32-32l0,0c0-17.674,14.326-32,32-32h64
	C225.674,280,240,294.326,240,312L240,312z"/>
<path style="fill:#D80027;" d="M176,280h-32c-17.674,0-32,14.326-32,32s14.326,32,32,32h32V280z"/>
<path style="fill:#FFFFFF;" d="M400,312c0,17.674-14.326,32-32,32h-64c-17.674,0-32-14.326-32-32l0,0c0-17.674,14.326-32,32-32h64
	C385.674,280,400,294.326,400,312L400,312z"/>
<path style="fill:#D80027;" d="M336,280h-32c-17.674,0-32,14.326-32,32s14.326,32,32,32h32V280z"/>
<path style="fill:#FFFFFF;" d="M240,424c0,17.674-14.326,32-32,32h-64c-17.674,0-32-14.326-32-32l0,0c0-17.674,14.326-32,32-32h64
	C225.674,392,240,406.326,240,424L240,424z"/>
<path style="fill:#D80027;" d="M176,392h-32c-17.674,0-32,14.326-32,32c0,17.674,14.326,32,32,32h32V392z"/>
<path style="fill:#FFFFFF;" d="M400,424c0,17.674-14.326,32-32,32h-64c-17.674,0-32-14.326-32-32l0,0c0-17.674,14.326-32,32-32h64
	C385.674,392,400,406.326,400,424L400,424z"/>
<path style="fill:#D80027;" d="M336,392h-32c-17.674,0-32,14.326-32,32c0,17.674,14.326,32,32,32h32V392z"/>
</svg>